<svg width="20" height="21" viewBox="0 0 20 21" fill="none" xmlns="http://www.w3.org/2000/svg">
<mask id="mask0_186_3413" style="mask-type:luminance" maskUnits="userSpaceOnUse" x="0" y="0" width="21" height="21">
<path d="M20.0057 0.545898H0V20.5459H20.0057V0.545898Z" fill="white"/>
</mask>
<g mask="url(#mask0_186_3413)">
<path d="M14.1915 7.54584H11.7875V5.54584C11.7875 4.51417 11.8709 3.86417 13.3513 3.86417H14.2199C14.4852 3.86417 14.7396 3.75881 14.9272 3.57128C15.1148 3.38374 15.2201 3.12939 15.2201 2.86417V1.61417C15.2232 1.36014 15.1295 1.11447 14.9579 0.927032C14.7864 0.739599 14.5499 0.624463 14.2966 0.605004C13.6919 0.56556 13.0868 0.545838 12.481 0.545838C11.8518 0.497921 11.2196 0.586653 10.6279 0.805945C10.0362 1.02524 9.49889 1.3699 9.05293 1.81629C8.60697 2.26268 8.26287 2.80023 8.04425 3.39206C7.82563 3.98389 7.73766 4.61599 7.78637 5.245V7.54584H5.78581C5.52051 7.54584 5.26609 7.6512 5.0785 7.83873C4.89091 8.02627 4.78552 8.28062 4.78552 8.54584V10.5458C4.78552 10.8111 4.89091 11.0654 5.0785 11.2529C5.26609 11.4405 5.52051 11.5458 5.78581 11.5458H7.78637V19.5458C7.78637 19.8111 7.89176 20.0654 8.07935 20.2529C8.26694 20.4405 8.52136 20.5458 8.78666 20.5458H10.7872C11.0525 20.5458 11.3069 20.4405 11.4945 20.2529C11.6821 20.0654 11.7875 19.8111 11.7875 19.5458V11.5458H13.9623C14.2083 11.5455 14.4455 11.4545 14.6287 11.2903C14.8118 11.1262 14.928 10.9003 14.9551 10.6558L15.1843 8.65584C15.1998 8.51621 15.1856 8.37489 15.1428 8.24109C15.1 8.10729 15.0294 7.98401 14.9358 7.87929C14.8421 7.77456 14.7274 7.69074 14.5992 7.63329C14.4709 7.57584 14.332 7.54604 14.1915 7.54584Z" fill="#113D6B"/>
</g>
</svg>
