<svg width="208" height="71" viewBox="0 0 208 71" fill="none" xmlns="http://www.w3.org/2000/svg">
<path d="M0 12.6323C0 6.00491 5.37258 0.632324 12 0.632324H196C202.627 0.632324 208 6.00491 208 12.6323V58.6323C208 65.2597 202.627 70.6323 196 70.6323H12C5.37258 70.6323 0 65.2597 0 58.6323V12.6323Z" fill="white"/>
<path d="M44.992 22.3069C43.196 21.3042 41.07 22.1509 40.3 23.8476L52.084 35.6322L58.0934 29.6229L44.992 22.3069Z" fill="url(#paint0_linear_186_2442)"/>
<path d="M58.0934 41.6417L52.084 35.6323L40.3 47.417C41.0707 49.1143 43.1967 49.9603 44.992 48.9583L58.0934 41.6417Z" fill="url(#paint1_linear_186_2442)"/>
<path d="M63.6127 38.561C64.7593 37.921 65.3327 36.777 65.3333 35.6324C65.3327 34.4877 64.7593 33.343 63.6127 32.7037L58.0933 29.623L52.084 35.6324L58.0933 41.6417L63.6127 38.561Z" fill="url(#paint2_linear_186_2442)"/>
<path d="M40.3 23.8477C40.112 24.2643 40 24.7337 40 25.2377V46.0237C40 46.531 40.1093 46.999 40.3 47.417L52.0827 35.6303L40.3 23.8477Z" fill="url(#paint3_linear_186_2442)"/>
<path d="M75.684 26.7283C75.068 26.7283 74.524 26.6043 74.052 26.3563C73.58 26.1083 73.212 25.7643 72.948 25.3243C72.692 24.8763 72.564 24.3603 72.564 23.7763V21.0883C72.564 20.5043 72.692 19.9883 72.948 19.5403C73.212 19.0923 73.58 18.7483 74.052 18.5083C74.524 18.2603 75.068 18.1363 75.684 18.1363C76.292 18.1363 76.828 18.2563 77.292 18.4963C77.764 18.7363 78.128 19.0643 78.384 19.4803C78.648 19.8883 78.78 20.3443 78.78 20.8483V20.9323C78.78 20.9723 78.764 21.0083 78.732 21.0403C78.708 21.0643 78.676 21.0763 78.636 21.0763H77.232C77.192 21.0763 77.156 21.0643 77.124 21.0403C77.1 21.0083 77.088 20.9723 77.088 20.9323V20.8963C77.088 20.5283 76.96 20.2203 76.704 19.9723C76.448 19.7163 76.108 19.5883 75.684 19.5883C75.252 19.5883 74.904 19.7243 74.64 19.9963C74.384 20.2603 74.256 20.6083 74.256 21.0403V23.8243C74.256 24.2563 74.396 24.6083 74.676 24.8803C74.956 25.1443 75.312 25.2763 75.744 25.2763C76.16 25.2763 76.492 25.1683 76.74 24.9523C76.988 24.7283 77.112 24.4203 77.112 24.0283V23.4883C77.112 23.4483 77.092 23.4283 77.052 23.4283H75.708C75.668 23.4283 75.632 23.4163 75.6 23.3923C75.576 23.3603 75.564 23.3243 75.564 23.2843V22.1803C75.564 22.1403 75.576 22.1083 75.6 22.0843C75.632 22.0523 75.668 22.0363 75.708 22.0363H78.636C78.676 22.0363 78.708 22.0523 78.732 22.0843C78.764 22.1083 78.78 22.1403 78.78 22.1803V23.7643C78.78 24.3723 78.652 24.9003 78.396 25.3483C78.14 25.7963 77.776 26.1403 77.304 26.3803C76.84 26.6123 76.3 26.7283 75.684 26.7283ZM85.9117 19.5403C85.9117 19.5803 85.8957 19.6163 85.8637 19.6483C85.8397 19.6723 85.8077 19.6843 85.7677 19.6843H81.8317C81.7917 19.6843 81.7717 19.7043 81.7717 19.7443V21.6043C81.7717 21.6443 81.7917 21.6643 81.8317 21.6643H84.4117C84.4517 21.6643 84.4837 21.6803 84.5077 21.7123C84.5397 21.7363 84.5557 21.7683 84.5557 21.8083V22.9723C84.5557 23.0123 84.5397 23.0483 84.5077 23.0803C84.4837 23.1043 84.4517 23.1163 84.4117 23.1163H81.8317C81.7917 23.1163 81.7717 23.1363 81.7717 23.1763V25.1203C81.7717 25.1603 81.7917 25.1803 81.8317 25.1803H85.7677C85.8077 25.1803 85.8397 25.1963 85.8637 25.2283C85.8957 25.2523 85.9117 25.2843 85.9117 25.3243V26.4883C85.9117 26.5283 85.8957 26.5643 85.8637 26.5963C85.8397 26.6203 85.8077 26.6323 85.7677 26.6323H80.2237C80.1837 26.6323 80.1477 26.6203 80.1157 26.5963C80.0917 26.5643 80.0797 26.5283 80.0797 26.4883V18.3763C80.0797 18.3363 80.0917 18.3043 80.1157 18.2803C80.1477 18.2483 80.1837 18.2323 80.2237 18.2323H85.7677C85.8077 18.2323 85.8397 18.2483 85.8637 18.2803C85.8957 18.3043 85.9117 18.3363 85.9117 18.3763V19.5403ZM92.8835 18.2323C92.9235 18.2323 92.9555 18.2483 92.9795 18.2803C93.0115 18.3043 93.0275 18.3363 93.0275 18.3763V19.5523C93.0275 19.5923 93.0115 19.6283 92.9795 19.6603C92.9555 19.6843 92.9235 19.6963 92.8835 19.6963H90.7355C90.6955 19.6963 90.6755 19.7163 90.6755 19.7563V26.4883C90.6755 26.5283 90.6595 26.5643 90.6275 26.5963C90.6035 26.6203 90.5715 26.6323 90.5315 26.6323H89.1275C89.0875 26.6323 89.0515 26.6203 89.0195 26.5963C88.9955 26.5643 88.9835 26.5283 88.9835 26.4883V19.7563C88.9835 19.7163 88.9635 19.6963 88.9235 19.6963H86.8355C86.7955 19.6963 86.7595 19.6843 86.7275 19.6603C86.7035 19.6283 86.6915 19.5923 86.6915 19.5523V18.3763C86.6915 18.3363 86.7035 18.3043 86.7275 18.2803C86.7595 18.2483 86.7955 18.2323 86.8355 18.2323H92.8835ZM96.6533 26.6323C96.6133 26.6323 96.5773 26.6203 96.5453 26.5963C96.5213 26.5643 96.5093 26.5283 96.5093 26.4883V18.3763C96.5093 18.3363 96.5213 18.3043 96.5453 18.2803C96.5773 18.2483 96.6133 18.2323 96.6533 18.2323H98.0573C98.0973 18.2323 98.1293 18.2483 98.1533 18.2803C98.1853 18.3043 98.2013 18.3363 98.2013 18.3763V26.4883C98.2013 26.5283 98.1853 26.5643 98.1533 26.5963C98.1293 26.6203 98.0973 26.6323 98.0573 26.6323H96.6533ZM105.458 18.2323C105.498 18.2323 105.53 18.2483 105.554 18.2803C105.586 18.3043 105.602 18.3363 105.602 18.3763V19.5523C105.602 19.5923 105.586 19.6283 105.554 19.6603C105.53 19.6843 105.498 19.6963 105.458 19.6963H103.31C103.27 19.6963 103.25 19.7163 103.25 19.7563V26.4883C103.25 26.5283 103.234 26.5643 103.202 26.5963C103.178 26.6203 103.146 26.6323 103.106 26.6323H101.702C101.662 26.6323 101.626 26.6203 101.594 26.5963C101.57 26.5643 101.558 26.5283 101.558 26.4883V19.7563C101.558 19.7163 101.538 19.6963 101.498 19.6963H99.4097C99.3697 19.6963 99.3337 19.6843 99.3017 19.6603C99.2777 19.6283 99.2657 19.5923 99.2657 19.5523V18.3763C99.2657 18.3363 99.2777 18.3043 99.3017 18.2803C99.3337 18.2483 99.3697 18.2323 99.4097 18.2323H105.458ZM112.072 26.7643C111.448 26.7643 110.896 26.6363 110.416 26.3803C109.944 26.1243 109.576 25.7683 109.312 25.3123C109.048 24.8483 108.916 24.3163 108.916 23.7163V21.1483C108.916 20.5563 109.048 20.0323 109.312 19.5763C109.576 19.1203 109.944 18.7683 110.416 18.5203C110.896 18.2643 111.448 18.1363 112.072 18.1363C112.704 18.1363 113.256 18.2643 113.728 18.5203C114.208 18.7683 114.58 19.1203 114.844 19.5763C115.108 20.0323 115.24 20.5563 115.24 21.1483V23.7163C115.24 24.3163 115.108 24.8483 114.844 25.3123C114.58 25.7763 114.208 26.1363 113.728 26.3923C113.256 26.6403 112.704 26.7643 112.072 26.7643ZM112.072 25.3123C112.512 25.3123 112.868 25.1723 113.14 24.8923C113.412 24.6123 113.548 24.2403 113.548 23.7763V21.1363C113.548 20.6723 113.412 20.3003 113.14 20.0203C112.876 19.7323 112.52 19.5883 112.072 19.5883C111.632 19.5883 111.276 19.7323 111.004 20.0203C110.74 20.3003 110.608 20.6723 110.608 21.1363V23.7763C110.608 24.2403 110.74 24.6123 111.004 24.8923C111.276 25.1723 111.632 25.3123 112.072 25.3123ZM121.361 18.3763C121.361 18.3363 121.373 18.3043 121.397 18.2803C121.429 18.2483 121.465 18.2323 121.505 18.2323H122.909C122.949 18.2323 122.981 18.2483 123.005 18.2803C123.037 18.3043 123.053 18.3363 123.053 18.3763V26.4883C123.053 26.5283 123.037 26.5643 123.005 26.5963C122.981 26.6203 122.949 26.6323 122.909 26.6323H121.553C121.473 26.6323 121.417 26.6003 121.385 26.5363L118.277 21.4003C118.261 21.3763 118.245 21.3683 118.229 21.3763C118.213 21.3763 118.205 21.3923 118.205 21.4243L118.229 26.4883C118.229 26.5283 118.213 26.5643 118.181 26.5963C118.157 26.6203 118.125 26.6323 118.085 26.6323H116.681C116.641 26.6323 116.605 26.6203 116.573 26.5963C116.549 26.5643 116.537 26.5283 116.537 26.4883V18.3763C116.537 18.3363 116.549 18.3043 116.573 18.2803C116.605 18.2483 116.641 18.2323 116.681 18.2323H118.037C118.117 18.2323 118.173 18.2643 118.205 18.3283L121.301 23.4403C121.317 23.4643 121.333 23.4763 121.349 23.4763C121.365 23.4683 121.373 23.4483 121.373 23.4163L121.361 18.3763Z" fill="#113D6B"/>
<path d="M79.7 37.2103C80.668 37.2103 81.5187 37.4083 82.252 37.8043C82.9853 38.2003 83.55 38.765 83.946 39.4983C84.3567 40.217 84.562 41.0457 84.562 41.9843C84.562 42.9083 84.3493 43.7223 83.924 44.4263C83.5133 45.1303 82.9267 45.6803 82.164 46.0763C81.416 46.4577 80.5507 46.6483 79.568 46.6483H76.444C76.3707 46.6483 76.334 46.685 76.334 46.7583V52.3683C76.334 52.4417 76.3047 52.5077 76.246 52.5663C76.202 52.6103 76.1433 52.6323 76.07 52.6323H73.496C73.4227 52.6323 73.3567 52.6103 73.298 52.5663C73.254 52.5077 73.232 52.4417 73.232 52.3683V37.4743C73.232 37.401 73.254 37.3423 73.298 37.2983C73.3567 37.2397 73.4227 37.2103 73.496 37.2103H79.7ZM79.238 44.1623C79.9127 44.1623 80.4553 43.9717 80.866 43.5903C81.2767 43.1943 81.482 42.681 81.482 42.0503C81.482 41.405 81.2767 40.8843 80.866 40.4883C80.4553 40.0923 79.9127 39.8943 79.238 39.8943H76.444C76.3707 39.8943 76.334 39.931 76.334 40.0043V44.0523C76.334 44.1257 76.3707 44.1623 76.444 44.1623H79.238ZM87.535 52.6323C87.4616 52.6323 87.3956 52.6103 87.337 52.5663C87.293 52.5077 87.271 52.4417 87.271 52.3683V37.4963C87.271 37.423 87.293 37.3643 87.337 37.3203C87.3956 37.2617 87.4616 37.2323 87.535 37.2323H90.109C90.1823 37.2323 90.241 37.2617 90.285 37.3203C90.3436 37.3643 90.373 37.423 90.373 37.4963V52.3683C90.373 52.4417 90.3436 52.5077 90.285 52.5663C90.241 52.6103 90.1823 52.6323 90.109 52.6323H87.535ZM98.152 41.1483C99.1054 41.1483 99.956 41.317 100.704 41.6543C101.452 41.977 102.031 42.4243 102.442 42.9963C102.867 43.5683 103.08 44.2063 103.08 44.9103V52.3683C103.08 52.4417 103.051 52.5077 102.992 52.5663C102.948 52.6103 102.889 52.6323 102.816 52.6323H100.242C100.169 52.6323 100.103 52.6103 100.044 52.5663C100 52.5077 99.978 52.4417 99.978 52.3683V51.6423C99.978 51.5983 99.9634 51.569 99.934 51.5543C99.9047 51.5397 99.8754 51.5543 99.846 51.5983C99.23 52.405 98.24 52.8083 96.876 52.8083C95.732 52.8083 94.808 52.5297 94.104 51.9723C93.4 51.415 93.048 50.5937 93.048 49.5083C93.048 48.379 93.444 47.5063 94.236 46.8903C95.028 46.2597 96.1574 45.9443 97.624 45.9443H99.868C99.9414 45.9443 99.978 45.9077 99.978 45.8343V45.3503C99.978 44.8663 99.8314 44.4923 99.538 44.2283C99.2447 43.9497 98.8047 43.8103 98.218 43.8103C97.7634 43.8103 97.382 43.891 97.074 44.0523C96.7807 44.2137 96.59 44.441 96.502 44.7343C96.458 44.8957 96.3627 44.969 96.216 44.9543L93.554 44.6023C93.378 44.573 93.2974 44.507 93.312 44.4043C93.3707 43.7883 93.6127 43.231 94.038 42.7323C94.478 42.2337 95.05 41.845 95.754 41.5663C96.4727 41.2877 97.272 41.1483 98.152 41.1483ZM97.712 50.4983C98.3427 50.4983 98.878 50.3297 99.318 49.9923C99.758 49.655 99.978 49.2223 99.978 48.6943V47.9023C99.978 47.829 99.9414 47.7923 99.868 47.7923H98.284C97.624 47.7923 97.1034 47.917 96.722 48.1663C96.3554 48.4157 96.172 48.7677 96.172 49.2223C96.172 49.6183 96.3114 49.9337 96.59 50.1683C96.8687 50.3883 97.2427 50.4983 97.712 50.4983ZM105.898 57.0103C105.854 57.0103 105.818 56.981 105.788 56.9223C105.759 56.8783 105.744 56.8197 105.744 56.7463V54.7223C105.744 54.649 105.766 54.583 105.81 54.5243C105.869 54.4803 105.935 54.4583 106.008 54.4583C106.624 54.4437 107.108 54.3923 107.46 54.3043C107.827 54.2163 108.113 54.0477 108.318 53.7983C108.538 53.549 108.707 53.1823 108.824 52.6983C108.839 52.669 108.839 52.625 108.824 52.5663L105.216 41.6103C105.202 41.581 105.194 41.5443 105.194 41.5003C105.194 41.3683 105.275 41.3023 105.436 41.3023H108.186C108.348 41.3023 108.45 41.3757 108.494 41.5223L110.342 48.6503C110.357 48.6943 110.379 48.7163 110.408 48.7163C110.438 48.7163 110.46 48.6943 110.474 48.6503L112.322 41.5223C112.366 41.3757 112.469 41.3023 112.63 41.3023H115.314C115.402 41.3023 115.461 41.3317 115.49 41.3903C115.534 41.4343 115.542 41.5077 115.512 41.6103L111.706 53.0503C111.34 54.121 110.966 54.9203 110.584 55.4483C110.203 55.991 109.668 56.387 108.978 56.6363C108.289 56.8857 107.314 57.0103 106.052 57.0103H105.898ZM121.765 52.7863C120.783 52.7863 119.925 52.647 119.191 52.3683C118.458 52.0897 117.886 51.701 117.475 51.2023C117.079 50.7037 116.881 50.139 116.881 49.5083V49.2883C116.881 49.215 116.903 49.1563 116.947 49.1123C117.006 49.0537 117.072 49.0243 117.145 49.0243H119.587C119.661 49.0243 119.719 49.0537 119.763 49.1123C119.822 49.1563 119.851 49.215 119.851 49.2883V49.3103C119.851 49.633 120.027 49.9117 120.379 50.1463C120.746 50.3663 121.201 50.4763 121.743 50.4763C122.242 50.4763 122.645 50.381 122.953 50.1903C123.261 49.985 123.415 49.7357 123.415 49.4423C123.415 49.1783 123.283 48.9803 123.019 48.8483C122.755 48.7163 122.323 48.577 121.721 48.4303C121.032 48.2543 120.489 48.0857 120.093 47.9243C119.155 47.6017 118.407 47.2057 117.849 46.7363C117.292 46.267 117.013 45.5923 117.013 44.7123C117.013 43.627 117.431 42.769 118.267 42.1383C119.118 41.493 120.24 41.1703 121.633 41.1703C122.572 41.1703 123.393 41.3243 124.097 41.6323C124.801 41.9257 125.344 42.3437 125.725 42.8863C126.121 43.429 126.319 44.045 126.319 44.7343C126.319 44.8077 126.29 44.8737 126.231 44.9323C126.187 44.9763 126.129 44.9983 126.055 44.9983H123.701C123.628 44.9983 123.562 44.9763 123.503 44.9323C123.459 44.8737 123.437 44.8077 123.437 44.7343C123.437 44.4117 123.269 44.1403 122.931 43.9203C122.609 43.7003 122.176 43.5903 121.633 43.5903C121.149 43.5903 120.753 43.6783 120.445 43.8543C120.137 44.0303 119.983 44.2723 119.983 44.5803C119.983 44.8737 120.13 45.0937 120.423 45.2403C120.731 45.387 121.237 45.541 121.941 45.7023C122.103 45.7463 122.286 45.7977 122.491 45.8563C122.697 45.9003 122.917 45.959 123.151 46.0323C124.193 46.3403 125.014 46.7363 125.615 47.2203C126.217 47.7043 126.517 48.4083 126.517 49.3323C126.517 50.4177 126.085 51.2683 125.219 51.8843C124.369 52.4857 123.217 52.7863 121.765 52.7863ZM135.767 43.5463C135.767 43.6197 135.737 43.6857 135.679 43.7443C135.635 43.7883 135.576 43.8103 135.503 43.8103H133.391C133.317 43.8103 133.281 43.847 133.281 43.9203V48.5843C133.281 49.0683 133.376 49.4277 133.567 49.6623C133.772 49.897 134.095 50.0143 134.535 50.0143H135.261C135.334 50.0143 135.393 50.0437 135.437 50.1023C135.495 50.1463 135.525 50.205 135.525 50.2783V52.3683C135.525 52.5297 135.437 52.625 135.261 52.6543C134.645 52.6837 134.205 52.6983 133.941 52.6983C132.723 52.6983 131.814 52.5003 131.213 52.1043C130.611 51.6937 130.303 50.931 130.289 49.8163V43.9203C130.289 43.847 130.252 43.8103 130.179 43.8103H128.925C128.851 43.8103 128.785 43.7883 128.727 43.7443C128.683 43.6857 128.661 43.6197 128.661 43.5463V41.5883C128.661 41.515 128.683 41.4563 128.727 41.4123C128.785 41.3537 128.851 41.3243 128.925 41.3243H130.179C130.252 41.3243 130.289 41.2877 130.289 41.2143V38.5963C130.289 38.523 130.311 38.4643 130.355 38.4203C130.413 38.3617 130.479 38.3323 130.553 38.3323H133.017C133.09 38.3323 133.149 38.3617 133.193 38.4203C133.251 38.4643 133.281 38.523 133.281 38.5963V41.2143C133.281 41.2877 133.317 41.3243 133.391 41.3243H135.503C135.576 41.3243 135.635 41.3537 135.679 41.4123C135.737 41.4563 135.767 41.515 135.767 41.5883V43.5463ZM143.478 52.8083C142.246 52.8083 141.19 52.4857 140.31 51.8403C139.43 51.195 138.829 50.315 138.506 49.2003C138.301 48.511 138.198 47.763 138.198 46.9563C138.198 46.091 138.301 45.3137 138.506 44.6243C138.843 43.539 139.452 42.6883 140.332 42.0723C141.212 41.4563 142.268 41.1483 143.5 41.1483C144.703 41.1483 145.729 41.4563 146.58 42.0723C147.431 42.6737 148.032 43.517 148.384 44.6023C148.619 45.3357 148.736 46.1057 148.736 46.9123C148.736 47.7043 148.633 48.445 148.428 49.1343C148.105 50.2783 147.504 51.1803 146.624 51.8403C145.759 52.4857 144.71 52.8083 143.478 52.8083ZM143.478 50.1463C143.962 50.1463 144.373 49.9997 144.71 49.7063C145.047 49.413 145.289 49.0097 145.436 48.4963C145.553 48.027 145.612 47.5137 145.612 46.9563C145.612 46.3403 145.553 45.8197 145.436 45.3943C145.275 44.8957 145.025 44.507 144.688 44.2283C144.351 43.9497 143.94 43.8103 143.456 43.8103C142.957 43.8103 142.539 43.9497 142.202 44.2283C141.879 44.507 141.645 44.8957 141.498 45.3943C141.381 45.7463 141.322 46.267 141.322 46.9563C141.322 47.6163 141.373 48.1297 141.476 48.4963C141.623 49.0097 141.865 49.413 142.202 49.7063C142.554 49.9997 142.979 50.1463 143.478 50.1463ZM157.362 41.1703C157.89 41.1703 158.308 41.273 158.616 41.4783C158.733 41.537 158.777 41.647 158.748 41.8083L158.286 44.3163C158.271 44.4923 158.169 44.5437 157.978 44.4703C157.758 44.397 157.501 44.3603 157.208 44.3603C157.091 44.3603 156.929 44.375 156.724 44.4043C156.196 44.4483 155.749 44.6463 155.382 44.9983C155.015 45.3357 154.832 45.7903 154.832 46.3623V52.3683C154.832 52.4417 154.803 52.5077 154.744 52.5663C154.7 52.6103 154.641 52.6323 154.568 52.6323H151.994C151.921 52.6323 151.855 52.6103 151.796 52.5663C151.752 52.5077 151.73 52.4417 151.73 52.3683V41.5883C151.73 41.515 151.752 41.4563 151.796 41.4123C151.855 41.3537 151.921 41.3243 151.994 41.3243H154.568C154.641 41.3243 154.7 41.3537 154.744 41.4123C154.803 41.4563 154.832 41.515 154.832 41.5883V42.4243C154.832 42.4683 154.847 42.4977 154.876 42.5123C154.905 42.527 154.927 42.5197 154.942 42.4903C155.543 41.6103 156.35 41.1703 157.362 41.1703ZM170.883 45.8123C170.971 46.3697 171 46.993 170.971 47.6823C170.956 47.8583 170.861 47.9463 170.685 47.9463H163.887C163.799 47.9463 163.769 47.983 163.799 48.0563C163.843 48.3497 163.923 48.643 164.041 48.9363C164.422 49.7577 165.199 50.1683 166.373 50.1683C167.311 50.1537 168.052 49.7723 168.595 49.0243C168.653 48.9363 168.719 48.8923 168.793 48.8923C168.837 48.8923 168.888 48.9217 168.947 48.9803L170.531 50.5423C170.604 50.6157 170.641 50.6817 170.641 50.7403C170.641 50.7697 170.611 50.8283 170.553 50.9163C170.069 51.5177 169.445 51.987 168.683 52.3243C167.92 52.647 167.084 52.8083 166.175 52.8083C164.913 52.8083 163.843 52.5223 162.963 51.9503C162.097 51.3783 161.474 50.579 161.093 49.5523C160.785 48.819 160.631 47.8583 160.631 46.6703C160.631 45.8637 160.741 45.1523 160.961 44.5363C161.298 43.495 161.885 42.6663 162.721 42.0503C163.571 41.4343 164.576 41.1263 165.735 41.1263C167.201 41.1263 168.375 41.5517 169.255 42.4023C170.149 43.253 170.692 44.3897 170.883 45.8123ZM165.757 43.8103C164.833 43.8103 164.224 44.243 163.931 45.1083C163.872 45.299 163.821 45.5337 163.777 45.8123C163.777 45.8857 163.813 45.9223 163.887 45.9223H167.693C167.781 45.9223 167.81 45.8857 167.781 45.8123C167.707 45.387 167.671 45.1817 167.671 45.1963C167.539 44.7563 167.304 44.419 166.967 44.1843C166.644 43.935 166.241 43.8103 165.757 43.8103Z" fill="#091F36"/>
<defs>
<linearGradient id="paint0_linear_186_2442" x1="48.068" y1="21.7949" x2="52.8647" y2="42.7922" gradientUnits="userSpaceOnUse">
<stop stop-color="#35AB4A"/>
<stop offset="0.297" stop-color="#31A145"/>
<stop offset="0.798" stop-color="#288739"/>
<stop offset="1" stop-color="#237A33"/>
</linearGradient>
<linearGradient id="paint1_linear_186_2442" x1="48.772" y1="35.5403" x2="50.1294" y2="64.253" gradientUnits="userSpaceOnUse">
<stop stop-color="#F14E5D"/>
<stop offset="0.499" stop-color="#EA3D4F"/>
<stop offset="1" stop-color="#E12138"/>
</linearGradient>
<linearGradient id="paint2_linear_186_2442" x1="57.962" y1="29.565" x2="60.3607" y2="48.707" gradientUnits="userSpaceOnUse">
<stop stop-color="#FFD844"/>
<stop offset="0.519" stop-color="#FFC63F"/>
<stop offset="1" stop-color="#FFB03A"/>
</linearGradient>
<linearGradient id="paint3_linear_186_2442" x1="45.2353" y1="23.5663" x2="46.3813" y2="48.173" gradientUnits="userSpaceOnUse">
<stop offset="0.003" stop-color="#0090E6"/>
<stop offset="1" stop-color="#0065A0"/>
</linearGradient>
</defs>
</svg>
