<svg width="96" height="97" viewBox="0 0 96 97" fill="none" xmlns="http://www.w3.org/2000/svg">
<g filter="url(#filter0_d_200_462)">
<rect x="20" y="16.2666" width="56" height="56" rx="8" fill="#E0F6FE" shape-rendering="crispEdges"/>
<path d="M38.6667 32.2666H36V56.2666H38.6667V32.2666Z" fill="#113D6B"/>
<path d="M60 53.5999H36V56.2666H60V53.5999Z" fill="#113D6B"/>
<path d="M38.6667 53.5999H36V56.2666H38.6667V53.5999Z" fill="#3C7FC6"/>
<path d="M60 48.9333H57.3333V56.2666H60V48.9333Z" fill="#113D6B"/>
<path d="M60 53.5999H57.3333V56.2666H60V53.5999Z" fill="#3C7FC6"/>
<path d="M41.3073 50.9332V45.5999C41.3073 40.0772 45.7846 35.5999 51.3073 35.5999H55.3073V39.5999H51.3073C47.9933 39.5999 45.3073 42.2859 45.3073 45.5999V50.9332H41.3073Z" fill="#3C7FC6"/>
<path d="M60 37.5999L53.3333 42.9333V32.2666L60 37.5999Z" fill="#113D6B"/>
<path d="M55.3073 35.5999H53.3333V39.5999H55.3073V35.5999Z" fill="#091F36"/>
</g>
<defs>
<filter id="filter0_d_200_462" x="0" y="0.266602" width="96" height="96" filterUnits="userSpaceOnUse" color-interpolation-filters="sRGB">
<feFlood flood-opacity="0" result="BackgroundImageFix"/>
<feColorMatrix in="SourceAlpha" type="matrix" values="0 0 0 0 0 0 0 0 0 0 0 0 0 0 0 0 0 0 127 0" result="hardAlpha"/>
<feOffset dy="4"/>
<feGaussianBlur stdDeviation="10"/>
<feComposite in2="hardAlpha" operator="out"/>
<feColorMatrix type="matrix" values="0 0 0 0 0.235294 0 0 0 0 0.498039 0 0 0 0 0.776471 0 0 0 0.73 0"/>
<feBlend mode="normal" in2="BackgroundImageFix" result="effect1_dropShadow_200_462"/>
<feBlend mode="normal" in="SourceGraphic" in2="effect1_dropShadow_200_462" result="shape"/>
</filter>
</defs>
</svg>
