<svg width="69" height="69" viewBox="0 0 69 69" fill="none" xmlns="http://www.w3.org/2000/svg">
<path d="M23.409 13.0269C23.1459 13.0337 22.8863 13.0892 22.6434 13.1906C22.6434 13.1906 18.5603 14.8551 14.71 19.3792C10.8598 23.9032 7.1012 31.3981 7.1012 42.8631C7.10101 42.967 7.10842 43.0709 7.12339 43.1738C7.06987 44.7905 7.34182 46.4015 7.92309 47.9111C8.50436 49.4207 9.3831 50.7981 10.5071 51.9614C11.6311 53.1248 12.9775 54.0503 14.4662 54.6832C15.9549 55.316 17.5556 55.6432 19.1733 55.6453C22.375 55.6453 25.4455 54.3734 27.7095 52.1094C29.9734 49.8455 31.2453 46.7749 31.2453 43.5732C31.2453 40.3715 29.9734 37.3009 27.7095 35.037C25.4455 32.773 22.375 31.5011 19.1733 31.5011C16.7453 31.5018 14.3739 32.2346 12.3689 33.6038C13.6027 28.3442 15.7961 24.6792 17.9555 22.142C21.2065 18.3221 24.2246 17.1462 24.2246 17.1462C24.6936 16.9663 25.0839 16.6265 25.3268 16.1868C25.5696 15.7471 25.6493 15.2358 25.5517 14.743C25.4542 14.2503 25.1857 13.8079 24.7936 13.4939C24.4016 13.1799 23.9112 13.0145 23.409 13.0269ZM53.2341 13.0269C52.971 13.0337 52.7114 13.0892 52.4685 13.1906C52.4685 13.1906 48.3854 14.8551 44.5351 19.3792C40.6849 23.9032 36.9263 31.3981 36.9263 42.8631C36.9261 42.967 36.9335 43.0709 36.9485 43.1738C36.895 44.7905 37.1669 46.4015 37.7482 47.9111C38.3295 49.4207 39.2082 50.7981 40.3322 51.9614C41.4562 53.1248 42.8026 54.0503 44.2913 54.6832C45.78 55.316 47.3807 55.6432 48.9983 55.6453C52.2001 55.6453 55.2706 54.3734 57.5346 52.1094C59.7985 49.8455 61.0704 46.7749 61.0704 43.5732C61.0704 40.3715 59.7985 37.3009 57.5346 35.037C55.2706 32.773 52.2001 31.5011 48.9983 31.5011C46.5704 31.5018 44.199 32.2346 42.1939 33.6038C43.4278 28.3442 45.6212 24.6792 47.7806 22.142C51.0315 18.3221 54.0496 17.1462 54.0496 17.1462C54.5186 16.9663 54.909 16.6265 55.1519 16.1868C55.3947 15.7471 55.4744 15.2358 55.3768 14.743C55.2793 14.2503 55.0108 13.8079 54.6187 13.4939C54.2267 13.1799 53.7363 13.0145 53.2341 13.0269Z" fill="#E0E6EC"/>
</svg>
