<svg width="21" height="21" viewBox="0 0 21 21" fill="none" xmlns="http://www.w3.org/2000/svg">
<mask id="mask0_186_3428" style="mask-type:luminance" maskUnits="userSpaceOnUse" x="0" y="0" width="21" height="21">
<path d="M20.0226 0.545898H0.0169678V20.5459H20.0226V0.545898Z" fill="white"/>
</mask>
<g mask="url(#mask0_186_3428)">
<path d="M17.7995 0.545899H2.2401C1.94812 0.545789 1.65899 0.603201 1.38921 0.714853C1.11944 0.826505 0.874322 0.99021 0.667863 1.19661C0.461405 1.40301 0.297654 1.64806 0.18597 1.91776C0.0742864 2.18745 0.0168584 2.4765 0.0169679 2.7684V18.3234C0.0168584 18.6153 0.0742864 18.9043 0.18597 19.174C0.297654 19.4437 0.461405 19.6888 0.667863 19.8952C0.874322 20.1016 1.11944 20.2653 1.38921 20.3769C1.65899 20.4886 1.94812 20.546 2.2401 20.5459H17.7995C18.0915 20.546 18.3806 20.4886 18.6504 20.3769C18.9202 20.2653 19.1653 20.1016 19.3717 19.8952C19.5782 19.6888 19.742 19.4437 19.8536 19.174C19.9653 18.9043 20.0227 18.6153 20.0226 18.3234V2.7684C20.0227 2.4765 19.9653 2.18745 19.8536 1.91776C19.742 1.64806 19.5782 1.40301 19.3717 1.19661C19.1653 0.99021 18.9202 0.826505 18.6504 0.714853C18.3806 0.603201 18.0915 0.545789 17.7995 0.545899ZM5.28263 16.1017C4.91056 16.1017 4.55372 15.954 4.29063 15.6909C4.02753 15.4279 3.87973 15.0712 3.87973 14.6992V9.72507C3.88039 9.35346 4.02846 8.99728 4.29146 8.73467C4.55446 8.47206 4.91091 8.32445 5.28263 8.32423C5.65455 8.32423 6.01126 8.47188 6.27433 8.73472C6.5374 8.99756 6.6853 9.35408 6.68552 9.7259V14.7001C6.68552 14.8842 6.64923 15.0665 6.57872 15.2367C6.50821 15.4068 6.40486 15.5613 6.27457 15.6915C6.14429 15.8217 5.98963 15.9249 5.81943 15.9953C5.64923 16.0657 5.46682 16.1018 5.28263 16.1017ZM5.23345 6.8984C5.05024 6.91235 4.86614 6.88816 4.69276 6.82736C4.51938 6.76656 4.3605 6.67048 4.22615 6.54517C4.09181 6.41987 3.98492 6.26808 3.91223 6.09938C3.83955 5.93068 3.80265 5.74874 3.80387 5.56506C3.80598 5.37402 3.84837 5.18557 3.92828 5.01202C4.00819 4.83846 4.12382 4.68372 4.26763 4.55788C4.41144 4.43205 4.58018 4.33796 4.76283 4.28176C4.94549 4.22556 5.13795 4.20851 5.32764 4.23173C5.51084 4.21778 5.69495 4.24197 5.86833 4.30277C6.04171 4.36357 6.20059 4.45966 6.33493 4.58496C6.46928 4.71026 6.57617 4.86205 6.64885 5.03075C6.72154 5.19945 6.75843 5.38139 6.75721 5.56506C6.7551 5.75603 6.71273 5.9444 6.63286 6.11789C6.553 6.29138 6.43745 6.44608 6.29373 6.5719C6.15002 6.69772 5.98139 6.79183 5.79883 6.84809C5.61628 6.90435 5.42308 6.92149 5.23345 6.8984ZM15.3313 16.1017C14.9715 16.1015 14.6264 15.9585 14.372 15.7041C14.1175 15.4498 13.9745 15.1048 13.9743 14.7451V11.8501C13.9743 10.6742 13.2507 10.5459 12.9798 10.5459C12.7089 10.5459 11.8036 10.5851 11.8036 11.8501V14.7442C11.8034 15.104 11.6604 15.4489 11.4059 15.7033C11.1515 15.9577 10.8064 16.1007 10.4466 16.1009H10.3532C9.99339 16.1007 9.64834 15.9577 9.39389 15.7033C9.13945 15.4489 8.9964 15.104 8.99618 14.7442V9.7259C8.99618 9.35393 9.14398 8.9972 9.40708 8.73418C9.67017 8.47116 10.027 8.3234 10.3991 8.3234C10.7711 8.3234 11.128 8.47116 11.3911 8.73418C11.6542 8.9972 11.802 9.35393 11.802 9.7259C11.802 9.7259 12.1154 8.3234 14.2452 8.3234C15.5997 8.3234 16.6859 9.40673 16.6859 11.8501V14.7442C16.6859 15.1037 16.5433 15.4485 16.2893 15.703C16.0354 15.9574 15.6909 16.1008 15.3313 16.1017Z" fill="#113D6B"/>
</g>
</svg>
