<svg width="24" height="25" viewBox="0 0 24 25" fill="none" xmlns="http://www.w3.org/2000/svg">
<path fill-rule="evenodd" clip-rule="evenodd" d="M4.99976 10.0827C5.00391 10.1432 5.00341 10.1586 5.01371 10.2185C5.03696 10.3532 5.08801 10.4828 5.16301 10.5971C5.20091 10.6549 5.24502 10.7053 5.29207 10.7557L11.2923 16.756C11.3367 16.7974 11.3468 16.8089 11.3952 16.8457C11.4496 16.8869 11.5083 16.9226 11.57 16.9519C11.8395 17.0801 12.1594 17.0801 12.429 16.9519C12.4907 16.9226 12.5493 16.8869 12.6037 16.8457C12.6521 16.8089 12.6623 16.7974 12.7066 16.756L18.7068 10.7557C18.7482 10.7114 18.7598 10.7012 18.7965 10.6528C18.893 10.5257 18.9581 10.3757 18.9853 10.2185C19.0046 10.1062 19.0046 9.99089 18.9853 9.87864C18.9698 9.78888 18.942 9.70133 18.9029 9.61908C18.7543 9.30666 18.4461 9.08915 18.102 9.05375C17.966 9.0398 17.8275 9.05405 17.6972 9.09541C17.5886 9.12986 17.4862 9.18291 17.3955 9.25171C17.347 9.28846 17.3369 9.30001 17.2926 9.34142L11.9995 14.6345L6.70633 9.34142L6.65643 9.29481C6.60942 9.25656 6.59847 9.24566 6.54767 9.21236C6.45247 9.14991 6.34661 9.10391 6.23601 9.07695C6.1475 9.0554 6.0561 9.046 5.9651 9.0491C5.61933 9.0609 5.29707 9.25691 5.12751 9.55842C5.07171 9.65768 5.03306 9.76643 5.01371 9.87864C5.00341 9.93854 5.00391 9.95394 4.99976 10.0144C4.99976 10.0372 4.99976 10.0599 4.99976 10.0827Z" fill="#113D6B"/>
</svg>
