<svg width="56" height="57" viewBox="0 0 56 57" fill="none" xmlns="http://www.w3.org/2000/svg">
<path d="M28 51.6C40.8866 51.6 51.3333 41.1533 51.3333 28.2666C51.3333 15.38 40.8866 4.93329 28 4.93329C15.1133 4.93329 4.66663 15.38 4.66663 28.2666C4.66663 41.1533 15.1133 51.6 28 51.6Z" fill="#E0F6FE"/>
<path d="M37.3334 31.7666H18.6667C17.3787 31.7666 16.3334 30.7212 16.3334 29.4332C16.3334 28.1452 17.3787 27.0999 18.6667 27.0999H37.3334C38.6214 27.0999 39.6667 28.1452 39.6667 29.4332C39.6667 30.7212 38.6214 31.7666 37.3334 31.7666Z" fill="#3C7FC6"/>
<path d="M35.0525 36.9548H20.9475C16.3404 36.9548 12.3714 40.0523 11.1755 44.4063C15.4222 48.8326 21.3827 51.5999 28 51.5999C34.6174 51.5999 40.5779 48.8326 44.8245 44.4074C43.6287 40.0523 39.6597 36.9548 35.0525 36.9548Z" fill="#113D6B"/>
<path d="M28 38.9206C22.9554 38.9206 18.7052 35.1511 18.1044 30.1414L17.6155 26.0651C16.8689 19.8386 21.7292 14.3599 28 14.3599C34.2709 14.3599 39.1324 19.8398 38.3845 26.0651L37.8957 30.1414C37.2949 35.1499 33.0447 38.9206 28 38.9206Z" fill="#3C7FC6"/>
<path d="M28 14.2666C25.6853 14.2666 23.583 15.0704 21.9193 16.3923C22.799 18.9064 25.186 20.7136 28 20.7136C30.814 20.7136 33.2021 18.9064 34.0806 16.3923C32.417 15.0704 30.3146 14.2666 28 14.2666Z" fill="#113D6B"/>
</svg>
