<svg width="56" height="57" viewBox="0 0 56 57" fill="none" xmlns="http://www.w3.org/2000/svg">
<rect x="0.00012207" y="0.266602" width="56" height="56" rx="8" fill="#E0F6FE"/>
<g clip-path="url(#clip0_200_253)">
<path d="M18.0001 16.5H42.0001V43.5H18.0001V16.5Z" fill="#3C7FC6"/>
<path d="M15.0001 16.5V23.1C15.0001 24.675 16.1251 26.1 17.7001 26.25C19.5001 26.4 21.0001 25.05 21.0001 23.25C21.0001 24.9 22.3501 26.25 24.0001 26.25C25.6501 26.25 27.0001 24.9 27.0001 23.25C27.0001 24.9 28.3501 26.25 30.0001 26.25C31.6501 26.25 33.0001 24.9 33.0001 23.25C33.0001 24.9 34.3501 26.25 36.0001 26.25C37.6501 26.25 39.0001 24.9 39.0001 23.25C39.0001 24.975 40.5001 26.4 42.3001 26.25C43.8751 26.1 45.0001 24.675 45.0001 23.1V16.5H15.0001Z" fill="#F55376"/>
<path d="M42.0001 16.5H18.0001V26.25C19.6501 26.25 21.0001 24.9 21.0001 23.25C21.0001 24.9 22.3501 26.25 24.0001 26.25C25.6501 26.25 27.0001 24.9 27.0001 23.25C27.0001 24.9 28.3501 26.25 30.0001 26.25C31.6501 26.25 33.0001 24.9 33.0001 23.25C33.0001 24.9 34.3501 26.25 36.0001 26.25C37.6501 26.25 39.0001 24.9 39.0001 23.25C39.0001 24.9 40.3501 26.25 42.0001 26.25V16.5Z" fill="#EB0000"/>
<path d="M20.2501 30H29.2501V38.25H20.2501V30Z" fill="#78B0EC"/>
<path d="M31.5001 30H39.7501V43.5H31.5001V30Z" fill="#78B0EC"/>
<path d="M46.5001 43.1249C47.4751 41.9999 48.0001 40.4999 48.0001 38.9249C48.0001 35.3249 45.1501 32.3999 41.6251 32.3999C38.1001 32.3999 35.2501 35.3249 35.2501 38.9249C35.2501 40.4999 35.8501 41.9999 36.7501 43.1249L41.6251 47.9999L46.5001 43.1249Z" fill="#F55376"/>
<path d="M42.0001 32.3999C41.8501 32.3999 41.7751 32.3999 41.6251 32.3999C38.1001 32.3999 35.2501 35.3249 35.2501 38.9249C35.2501 40.4999 35.8501 41.9999 36.7501 43.1249L37.1251 43.4999H42.0001V32.3999Z" fill="#EB0000"/>
<path d="M41.6251 42.075C43.4063 42.075 44.8501 40.6311 44.8501 38.85C44.8501 37.0689 43.4063 35.625 41.6251 35.625C39.844 35.625 38.4001 37.0689 38.4001 38.85C38.4001 40.6311 39.844 42.075 41.6251 42.075Z" fill="#FA91AD"/>
</g>
<defs>
<clipPath id="clip0_200_253">
<rect width="36" height="36" fill="white" transform="translate(12.0001 12)"/>
</clipPath>
</defs>
</svg>
