<svg width="56" height="57" viewBox="0 0 56 57" fill="none" xmlns="http://www.w3.org/2000/svg">
<rect x="0.00012207" y="0.266602" width="56" height="56" rx="8" fill="#E0F6FE"/>
<path d="M25.3334 14.9333C19.4427 14.9333 14.6667 19.7093 14.6667 25.6C14.6667 31.4907 19.4427 36.2667 25.3334 36.2667C31.2241 36.2667 36.0001 31.4907 36.0001 25.6C36.0001 19.7093 31.2241 14.9333 25.3334 14.9333Z" fill="#4D9EBA"/>
<path d="M34.1568 31.5952C33.4001 32.7065 32.4395 33.6672 31.3281 34.4239L38.9188 42.0145L41.7475 39.1859L34.1568 31.5952Z" fill="#091F36"/>
<path d="M31.4141 28.8525L28.5854 31.6812L31.3281 34.4239C32.4394 33.6672 33.4001 32.7065 34.1568 31.5952L31.4141 28.8525Z" fill="#66D2F8"/>
</svg>
