<svg width="56" height="57" viewBox="0 0 56 57" fill="none" xmlns="http://www.w3.org/2000/svg">
<rect x="0.00012207" y="0.266602" width="56" height="56" rx="8" fill="#E0F6FE"/>
<path d="M40.0001 40H16.0001V16H40.0001V40Z" fill="#F5BC00"/>
<path d="M23.3334 16H32.6668V22H23.3334V16Z" fill="#EB7900"/>
<path d="M38.8541 37.4193L37.4399 38.8335L42.5783 43.9717L43.9925 42.5575L38.8541 37.4193Z" fill="#091F36"/>
<path d="M36.6668 31.3333C33.7334 31.3333 31.3334 33.7333 31.3334 36.6666C31.3334 39.5999 33.7334 41.9999 36.6668 41.9999C39.6001 41.9999 42.0001 39.5999 42.0001 36.6666C42.0001 33.7333 39.6001 31.3333 36.6668 31.3333Z" fill="#3C7FC6"/>
<path d="M39.6668 38.2L38.2668 39.6L39.7334 41.0666C40.2668 40.6666 40.8001 40.2 41.1335 39.6666L39.6668 38.2Z" fill="#3DD9EB"/>
</svg>
