<svg width="94" height="94" viewBox="0 0 94 94" fill="none" xmlns="http://www.w3.org/2000/svg">
<g filter="url(#filter0_d_186_3228)">
<rect x="11" y="10.0483" width="72" height="72" rx="36" fill="white"/>
<rect x="11.5" y="10.5483" width="71" height="71" rx="35.5" stroke="#66D2F8"/>
<path d="M47 38.0483L39 42.4483V44.5483L47 48.0483L55 44.5483V42.4483L47 38.0483Z" fill="black"/>
<path d="M57 55.0483H37V43.5483L47 38.0483L57 43.5483V55.0483Z" fill="#091F36"/>
<path d="M39 37.0483V44.5483L47 48.0483L55 44.5483V37.0483H39Z" fill="#E0F6FE"/>
<path d="M47 38.0483L39 42.4483V44.5483L47 48.0483L55 44.5483V42.4483L47 38.0483Z" fill="#4D9EBA"/>
<path d="M49.5 42.5483L47 40.0483L44.5 42.5483H46V46.0483H48V42.5483H49.5Z" fill="white"/>
</g>
<defs>
<filter id="filter0_d_186_3228" x="0.7" y="0.74834" width="92.6" height="92.6" filterUnits="userSpaceOnUse" color-interpolation-filters="sRGB">
<feFlood flood-opacity="0" result="BackgroundImageFix"/>
<feColorMatrix in="SourceAlpha" type="matrix" values="0 0 0 0 0 0 0 0 0 0 0 0 0 0 0 0 0 0 127 0" result="hardAlpha"/>
<feOffset dy="1"/>
<feGaussianBlur stdDeviation="5.15"/>
<feColorMatrix type="matrix" values="0 0 0 0 0.0666667 0 0 0 0 0.239216 0 0 0 0 0.419608 0 0 0 0.08 0"/>
<feBlend mode="normal" in2="BackgroundImageFix" result="effect1_dropShadow_186_3228"/>
<feBlend mode="normal" in="SourceGraphic" in2="effect1_dropShadow_186_3228" result="shape"/>
</filter>
</defs>
</svg>
