<svg width="56" height="57" viewBox="0 0 56 57" fill="none" xmlns="http://www.w3.org/2000/svg">
<path d="M42 6.09991H14V50.4332H42V6.09991Z" fill="#113D6B"/>
<path d="M28 24.6149C21.8879 24.6149 16.8724 29.2956 16.3334 35.2666H39.6667C39.1277 29.2956 34.1122 24.6149 28 24.6149Z" fill="#3C7FC6"/>
<path d="M35.0562 21.4605L31.8976 26.933L33.582 27.9053L36.7406 22.4327L35.0562 21.4605Z" fill="#3C7FC6"/>
<path d="M20.942 21.4603L19.2577 22.4327L22.417 27.9049L24.1013 26.9324L20.942 21.4603Z" fill="#3C7FC6"/>
<path d="M34.4646 26.3766C33.9256 26.0184 33.3551 25.7081 32.7589 25.4421L31.8967 26.9342L33.5814 27.9061L34.4646 26.3766Z" fill="#3C7FC6"/>
<path d="M22.4187 27.9061L24.1034 26.9342L23.2412 25.4421C22.645 25.7081 22.0745 26.0196 21.5355 26.3766L22.4187 27.9061Z" fill="#3C7FC6"/>
<path d="M22.6531 31.6686C23.1898 31.6686 23.6249 31.2335 23.6249 30.6967C23.6249 30.16 23.1898 29.7249 22.6531 29.7249C22.1164 29.7249 21.6813 30.16 21.6813 30.6967C21.6813 31.2335 22.1164 31.6686 22.6531 31.6686Z" fill="#113D6B"/>
<path d="M33.3468 31.6686C33.8836 31.6686 34.3187 31.2335 34.3187 30.6967C34.3187 30.16 33.8836 29.7249 33.3468 29.7249C32.8101 29.7249 32.375 30.16 32.375 30.6967C32.375 31.2335 32.8101 31.6686 33.3468 31.6686Z" fill="#113D6B"/>
<path d="M35 6.09991H21V9.59991H35V6.09991Z" fill="#3C7FC6"/>
</svg>
