<svg width="16" height="16" viewBox="0 0 16 16" fill="none" xmlns="http://www.w3.org/2000/svg">
<path d="M0.666687 3.33325H15.3334V12.6666H0.666687V3.33325Z" fill="#3F51B5"/>
<path d="M0.666687 4.73859L7.60335 8.97825L8.64635 7.27159L2.20269 3.33325H0.666687V4.73859Z" fill="white"/>
<path d="M15.3333 3.33325H14.1303L7.68701 7.27125L8.72968 8.97825L15.3333 4.94192V3.33325Z" fill="white"/>
<path d="M8.72968 6.75708L7.68701 8.46375L14.5637 12.6667H15.3333V10.7931L8.72968 6.75708Z" fill="white"/>
<path d="M0.666687 10.9971V12.6667H1.77002L8.64635 8.46408L7.60369 6.75708L0.666687 10.9971Z" fill="white"/>
<path d="M0.666687 6.66675H15.3334V9.33341H0.666687V6.66675Z" fill="white"/>
<path d="M6.66669 3.33325H9.33335V12.6666H6.66669V3.33325Z" fill="white"/>
<path d="M5.73935 6.66658L0.666687 3.56625V4.34759L4.46069 6.66658H5.73935ZM14.7697 3.33325L9.31569 6.66658H10.594L15.3334 3.77025V3.33325H14.7697ZM11.0274 9.33325L15.3334 11.9649V11.1836L12.3057 9.33325H11.0274ZM5.30602 9.33325L0.666687 12.1686V12.6666H1.13069L6.58435 9.33325H5.30602ZM0.666687 7.33325H15.3334V8.66658H0.666687V7.33325Z" fill="#E53935"/>
<path d="M7.33337 3.33325H8.66671V12.6666H7.33337V3.33325Z" fill="#E53935"/>
</svg>
