<svg width="64" height="65" viewBox="0 0 64 65" fill="none" xmlns="http://www.w3.org/2000/svg">
<rect width="64" height="64" rx="32" transform="matrix(-1 0 0 1 64 0.6521)" fill="#091F36"/>
<path d="M34.43 26.8771C34.6812 26.8865 34.9175 26.9953 35.09 27.1771L39.83 31.9771L40.49 32.6521L39.83 33.3271L35.09 38.1271C34.7169 38.5078 34.1056 38.5153 33.725 38.1421C33.3444 37.769 33.3369 37.1578 33.71 36.7771L36.845 33.6121H24.8C24.4531 33.6178 24.1325 33.4359 23.9581 33.1359C23.7819 32.8378 23.7819 32.4665 23.9581 32.1684C24.1325 31.8684 24.4531 31.6865 24.8 31.6921H36.845L33.71 28.5271C33.4212 28.2478 33.335 27.8203 33.4962 27.4509C33.6575 27.0834 34.0287 26.8546 34.43 26.8771Z" fill="white"/>
</svg>
