<svg width="64" height="65" viewBox="0 0 64 65" fill="none" xmlns="http://www.w3.org/2000/svg">
<rect x="0.5" y="1.1521" width="63" height="63" rx="31.5" fill="#E0F6FE"/>
<rect x="0.5" y="1.1521" width="63" height="63" rx="31.5" stroke="#3C7FC6"/>
<path d="M29.57 26.8771C29.3188 26.8865 29.0825 26.9953 28.91 27.1771L24.17 31.9771L23.51 32.6521L24.17 33.3271L28.91 38.1271C29.2831 38.5078 29.8944 38.5153 30.275 38.1421C30.6556 37.769 30.6631 37.1578 30.29 36.7771L27.155 33.6121H39.2C39.5469 33.6178 39.8675 33.4359 40.0419 33.1359C40.2181 32.8378 40.2181 32.4665 40.0419 32.1684C39.8675 31.8684 39.5469 31.6865 39.2 31.6921H27.155L30.29 28.5271C30.5788 28.2478 30.665 27.8203 30.5038 27.4509C30.3425 27.0834 29.9713 26.8546 29.57 26.8771Z" fill="#113D6B"/>
</svg>
