<svg width="24" height="25" viewBox="0 0 24 25" fill="none" xmlns="http://www.w3.org/2000/svg">
<path d="M11.9854 3.24217C11.7203 3.24606 11.4676 3.355 11.2829 3.54508C11.0981 3.73515 10.9964 3.9908 11 4.25584V13.8418L9.70703 12.5488C9.61373 12.4529 9.50212 12.3767 9.37883 12.3247C9.25554 12.2727 9.12307 12.246 8.98926 12.2461C8.79041 12.2463 8.59615 12.3058 8.43129 12.417C8.26643 12.5282 8.13846 12.686 8.06372 12.8703C7.98898 13.0546 7.97088 13.2569 8.01171 13.4516C8.05255 13.6462 8.15047 13.8242 8.29297 13.9629L11.293 16.9629C11.4805 17.1503 11.7348 17.2557 12 17.2557C12.2652 17.2557 12.5195 17.1503 12.707 16.9629L15.707 13.9629C15.803 13.8707 15.8796 13.7604 15.9324 13.6382C15.9852 13.5161 16.0131 13.3847 16.0144 13.2516C16.0158 13.1186 15.9906 12.9866 15.9403 12.8634C15.89 12.7403 15.8157 12.6284 15.7216 12.5343C15.6275 12.4402 15.5156 12.3658 15.3924 12.3155C15.2692 12.2653 15.1373 12.24 15.0042 12.2414C14.8712 12.2428 14.7397 12.2706 14.6176 12.3234C14.4955 12.3762 14.3851 12.4528 14.293 12.5488L13 13.8418V4.25584C13.0018 4.12214 12.9768 3.98942 12.9265 3.86555C12.8761 3.74167 12.8014 3.62916 12.7068 3.53465C12.6122 3.44014 12.4996 3.36556 12.3757 3.31533C12.2518 3.26509 12.1191 3.24021 11.9854 3.24217ZM6 8.75584C4.35498 8.75584 3 10.1108 3 11.7558V18.2558C3 19.9009 4.35498 21.2558 6 21.2558H18C19.645 21.2558 21 19.9009 21 18.2558V11.7558C21 10.1108 19.645 8.75584 18 8.75584H16.5C16.3675 8.75397 16.2359 8.77845 16.113 8.82787C15.99 8.87728 15.8781 8.95064 15.7837 9.04368C15.6893 9.13673 15.6144 9.2476 15.5632 9.36986C15.5121 9.49212 15.4858 9.62332 15.4858 9.75584C15.4858 9.88837 15.5121 10.0196 15.5632 10.1418C15.6144 10.2641 15.6893 10.375 15.7837 10.468C15.8781 10.561 15.99 10.6344 16.113 10.6838C16.2359 10.7332 16.3675 10.7577 16.5 10.7558H18C18.564 10.7558 19 11.1919 19 11.7558V18.2558C19 18.8198 18.564 19.2558 18 19.2558H6C5.43602 19.2558 5 18.8198 5 18.2558V11.7558C5 11.1919 5.43602 10.7558 6 10.7558H7.5C7.63251 10.7577 7.76407 10.7332 7.88704 10.6838C8.01001 10.6344 8.12193 10.561 8.2163 10.468C8.31067 10.375 8.38561 10.2641 8.43676 10.1418C8.4879 10.0196 8.51424 9.88837 8.51424 9.75584C8.51424 9.62332 8.4879 9.49212 8.43676 9.36986C8.38561 9.2476 8.31067 9.13673 8.2163 9.04368C8.12193 8.95064 8.01001 8.87728 7.88704 8.82787C7.76407 8.77845 7.63251 8.75397 7.5 8.75584H6Z" fill="white"/>
</svg>
