<svg width="24" height="25" viewBox="0 0 24 25" fill="none" xmlns="http://www.w3.org/2000/svg">
<path fill-rule="evenodd" clip-rule="evenodd" d="M4.99976 14.014C5.00391 13.9535 5.00341 13.9381 5.01371 13.8782C5.03696 13.7435 5.08801 13.6139 5.16301 13.4996C5.20091 13.4418 5.24502 13.3914 5.29207 13.341L11.2923 7.3407C11.3367 7.29929 11.3468 7.28774 11.3952 7.25099C11.4496 7.20974 11.5083 7.17409 11.57 7.14474C11.8395 7.01653 12.1594 7.01653 12.429 7.14474C12.4907 7.17409 12.5493 7.20974 12.6037 7.25099C12.6521 7.28774 12.6623 7.29929 12.7066 7.3407L18.7068 13.341C18.7482 13.3853 18.7598 13.3955 18.7965 13.4439C18.893 13.571 18.9581 13.721 18.9853 13.8782C19.0046 13.9904 19.0046 14.1058 18.9853 14.218C18.9698 14.3078 18.942 14.3953 18.9029 14.4776C18.7543 14.79 18.4461 15.0075 18.102 15.0429C17.966 15.0569 17.8275 15.0426 17.6972 15.0013C17.5886 14.9668 17.4862 14.9138 17.3955 14.845C17.347 14.8082 17.3369 14.7967 17.2926 14.7553L11.9995 9.46214L6.70633 14.7553L6.65643 14.8019C6.60942 14.8401 6.59847 14.851 6.54767 14.8843C6.45247 14.9468 6.34661 14.9928 6.23601 15.0197C6.1475 15.0413 6.0561 15.0507 5.9651 15.0476C5.61933 15.0358 5.29707 14.8398 5.12751 14.5383C5.07171 14.439 5.03306 14.3302 5.01371 14.218C5.00341 14.1581 5.00391 14.1427 4.99976 14.0822C4.99976 14.0595 4.99976 14.0367 4.99976 14.014Z" fill="white"/>
</svg>
