<svg width="21" height="21" viewBox="0 0 21 21" fill="none" xmlns="http://www.w3.org/2000/svg">
<mask id="mask0_186_3418" style="mask-type:luminance" maskUnits="userSpaceOnUse" x="0" y="0" width="21" height="21">
<path d="M20.0113 0.545898H0.00561523V20.5459H20.0113V0.545898Z" fill="white"/>
</mask>
<g mask="url(#mask0_186_3418)">
<path d="M19.6453 2.57689C18.7161 3.0742 17.7459 3.49074 16.7453 3.82189C16.7187 3.82855 16.6961 3.83772 16.6703 3.84522C16.0385 3.22226 15.2367 2.79988 14.3655 2.63116C13.4943 2.46245 12.5927 2.55491 11.7739 2.89695C10.9551 3.23899 10.2558 3.81533 9.76367 4.55355C9.27158 5.29177 9.00872 6.15893 9.00813 7.04605C9.00813 7.17689 8.9973 7.41772 9.00813 7.54605C5.78889 7.54605 3.43822 5.86689 1.67855 3.71272C1.44349 3.42272 1.19342 3.57355 1.14174 3.77939C1.02762 4.37267 0.975099 4.97615 0.985024 5.58022C0.985024 6.98105 2.08033 8.35689 3.78582 9.21022C3.45292 9.29929 3.11012 9.34605 2.76553 9.34939C2.29903 9.34496 1.84012 9.23077 1.42598 9.01605C1.2676 8.93272 0.92584 8.95605 1.02754 9.36022C1.43265 10.9794 3.27817 12.1161 4.93281 12.4436C4.43636 12.6103 3.91027 12.6702 3.38904 12.6194C3.25317 12.6194 2.7797 12.5877 2.47211 12.5494C2.19287 12.5152 1.76358 12.5877 2.12285 13.1327C2.60652 13.7329 3.21818 14.2175 3.91315 14.5511C4.60813 14.8847 5.36887 15.059 6.13982 15.0611C4.75776 16.1444 2.49712 16.5411 0.330672 16.5411C-0.107786 16.5311 -0.086113 17.0302 0.267321 17.2152C2.17911 18.0831 4.25273 18.5375 6.35238 18.5486C13.787 18.5461 18.0107 12.8794 18.0107 7.54605C18.0107 7.46272 18.0107 7.28022 18.0057 7.09939C18.0057 7.08105 18.0107 7.06439 18.0107 7.04605C18.0107 7.02772 18.0023 6.99272 18.0023 6.96272C18.0023 6.82689 17.9965 6.69939 17.9932 6.63355C18.7043 6.13138 19.3574 5.55171 19.9404 4.90522C20.0954 4.71355 19.9704 4.48022 19.7595 4.55355C19.089 4.82224 18.3961 5.03138 17.6889 5.17855C18.5946 4.61642 19.3661 3.86296 19.9496 2.97105C20.1204 2.71272 19.9062 2.45272 19.6453 2.57689Z" fill="#113D6B"/>
</g>
</svg>
