<svg width="96" height="97" viewBox="0 0 96 97" fill="none" xmlns="http://www.w3.org/2000/svg">
<g filter="url(#filter0_d_200_387)">
<rect x="20" y="16.2666" width="56" height="56" rx="8" fill="white" shape-rendering="crispEdges"/>
<path d="M48 57.5999C42.5227 57.5999 37.9087 53.5066 37.256 48.0686L36.7247 44.9759C35.914 38.2159 41.192 32.2666 48 32.2666C54.808 32.2666 60.086 38.2159 59.2747 44.9753L58.7434 48.0679C58.0914 53.5066 53.4774 57.5999 48 57.5999Z" fill="#99B6D3"/>
<path d="M57.134 35.5439C56.584 34.7993 55.9427 34.1219 55.2287 33.5326C53.2747 31.9159 50.7633 30.9353 48 30.9353C45.2367 30.9353 42.7253 31.9159 40.7707 33.5319C40.4013 33.8373 40.048 34.1659 39.7173 34.5219C37.6407 36.7373 36.4487 39.7746 36.6687 43.0399C38.91 42.0739 40.5887 40.0519 41.0787 37.6013H54.9213C55.4113 40.0526 57.09 42.0739 59.3313 43.0399C59.5187 40.2546 58.6793 37.6353 57.134 35.5439Z" fill="#091F36"/>
<path d="M58.6666 48.9333H37.3333C36.2286 48.9333 35.3333 48.0379 35.3333 46.9333C35.3333 45.8286 36.2286 44.9333 37.3333 44.9333H58.6666C59.7713 44.9333 60.6666 45.8286 60.6666 46.9333C60.6666 48.0379 59.7713 48.9333 58.6666 48.9333Z" fill="#99B6D3"/>
<path d="M57.134 37.5419C56.584 36.7973 55.9427 36.1199 55.2287 35.5306C53.2747 33.9139 50.7633 32.9333 48 32.9333C45.2367 32.9333 42.7253 33.9139 40.7707 35.5299C40.4013 35.8353 40.048 36.1639 39.7173 36.5199C37.6407 38.7353 36.4487 41.7726 36.6687 45.0379C38.91 44.0719 40.5887 42.0499 41.0787 39.5993H54.9213C55.4113 42.0506 57.09 44.0719 59.3313 45.0379C59.5187 42.2526 58.6793 39.6333 57.134 37.5419Z" fill="#113D6B"/>
<path d="M61.3334 35.5999C61.7015 35.5999 62 35.3015 62 34.9333C62 34.5651 61.7015 34.2666 61.3334 34.2666C60.9652 34.2666 60.6667 34.5651 60.6667 34.9333C60.6667 35.3015 60.9652 35.5999 61.3334 35.5999Z" fill="#F5BC00"/>
<path d="M59.3334 32.9333C59.7015 32.9333 60 32.6348 60 32.2666C60 31.8984 59.7015 31.5999 59.3334 31.5999C58.9652 31.5999 58.6667 31.8984 58.6667 32.2666C58.6667 32.6348 58.9652 32.9333 59.3334 32.9333Z" fill="#F5BC00"/>
<path d="M62 38.9333C62.3682 38.9333 62.6666 38.6348 62.6666 38.2666C62.6666 37.8984 62.3682 37.5999 62 37.5999C61.6318 37.5999 61.3333 37.8984 61.3333 38.2666C61.3333 38.6348 61.6318 38.9333 62 38.9333Z" fill="#F5BC00"/>
<path d="M34.6667 35.5999C35.0349 35.5999 35.3333 35.3015 35.3333 34.9333C35.3333 34.5651 35.0349 34.2666 34.6667 34.2666C34.2985 34.2666 34 34.5651 34 34.9333C34 35.3015 34.2985 35.5999 34.6667 35.5999Z" fill="#F5BC00"/>
<path d="M36.6667 32.9333C37.0349 32.9333 37.3333 32.6348 37.3333 32.2666C37.3333 31.8984 37.0349 31.5999 36.6667 31.5999C36.2985 31.5999 36 31.8984 36 32.2666C36 32.6348 36.2985 32.9333 36.6667 32.9333Z" fill="#F5BC00"/>
<path d="M34 38.9333C34.3682 38.9333 34.6666 38.6348 34.6666 38.2666C34.6666 37.8984 34.3682 37.5999 34 37.5999C33.6318 37.5999 33.3333 37.8984 33.3333 38.2666C33.3333 38.6348 33.6318 38.9333 34 38.9333Z" fill="#F5BC00"/>
<path d="M48 53.5999C46.1594 53.5999 44.6667 52.1073 44.6667 50.2666H51.3334C51.3334 52.1073 49.8407 53.5999 48 53.5999Z" fill="white"/>
</g>
<defs>
<filter id="filter0_d_200_387" x="0" y="0.266602" width="96" height="96" filterUnits="userSpaceOnUse" color-interpolation-filters="sRGB">
<feFlood flood-opacity="0" result="BackgroundImageFix"/>
<feColorMatrix in="SourceAlpha" type="matrix" values="0 0 0 0 0 0 0 0 0 0 0 0 0 0 0 0 0 0 127 0" result="hardAlpha"/>
<feOffset dy="4"/>
<feGaussianBlur stdDeviation="10"/>
<feComposite in2="hardAlpha" operator="out"/>
<feColorMatrix type="matrix" values="0 0 0 0 0.235294 0 0 0 0 0.498039 0 0 0 0 0.776471 0 0 0 0.73 0"/>
<feBlend mode="normal" in2="BackgroundImageFix" result="effect1_dropShadow_200_387"/>
<feBlend mode="normal" in="SourceGraphic" in2="effect1_dropShadow_200_387" result="shape"/>
</filter>
</defs>
</svg>
