<svg width="21" height="21" viewBox="0 0 21 21" fill="none" xmlns="http://www.w3.org/2000/svg">
<mask id="mask0_186_3423" style="mask-type:luminance" maskUnits="userSpaceOnUse" x="0" y="0" width="21" height="21">
<path d="M20.017 0.545898H0.0113525V20.5459H20.017V0.545898Z" fill="white"/>
</mask>
<g mask="url(#mask0_186_3423)">
<path d="M19.6002 4.73173C19.4861 4.30768 19.2626 3.92104 18.952 3.61055C18.6414 3.30005 18.2547 3.07659 17.8305 2.96257C16.2659 2.5459 10.0141 2.5459 10.0141 2.5459C10.0141 2.5459 3.76236 2.5459 2.19775 2.96257C1.77358 3.07659 1.38683 3.30005 1.07625 3.61055C0.76566 3.92104 0.542142 4.30768 0.428082 4.73173C0.130603 6.65516 -0.00879174 8.59972 0.0112977 10.5459C-0.00879174 12.4921 0.130603 14.4366 0.428082 16.3601C0.542142 16.7841 0.76566 17.1708 1.07625 17.4813C1.38683 17.7918 1.77358 18.0152 2.19775 18.1292C3.76236 18.5459 10.0141 18.5459 10.0141 18.5459C10.0141 18.5459 16.2659 18.5459 17.8305 18.1292C18.2548 18.0154 18.6416 17.792 18.9522 17.4814C19.2628 17.1709 19.4863 16.7842 19.6002 16.3601C19.8977 14.4366 20.0371 12.4921 20.017 10.5459C20.0371 8.59972 19.8977 6.65516 19.6002 4.73173ZM8.01357 13.1442V7.94757C8.01351 7.85977 8.03658 7.77351 8.08045 7.69745C8.12432 7.6214 8.18746 7.55823 8.2635 7.51431C8.33954 7.47039 8.42581 7.44726 8.51363 7.44724C8.60145 7.44723 8.68772 7.47033 8.76378 7.51423L13.2651 10.1126C13.341 10.1565 13.4041 10.2196 13.448 10.2956C13.4919 10.3716 13.515 10.4577 13.515 10.5455C13.515 10.6332 13.4919 10.7194 13.448 10.7954C13.4041 10.8714 13.341 10.9345 13.2651 10.9784L8.76378 13.5767C8.68778 13.6206 8.60158 13.6437 8.51383 13.6437C8.42609 13.6437 8.33987 13.6207 8.26386 13.5769C8.18784 13.533 8.1247 13.47 8.08076 13.3941C8.03683 13.3181 8.01366 13.232 8.01357 13.1442Z" fill="#113D6B"/>
</g>
</svg>
